<svg xmlns="http://www.w3.org/2000/svg" width="800" height="400" viewBox="0 0 800 400">
  <rect width="800" height="400" fill="#f3f4f6"/>
  <rect x="40" y="40" width="720" height="320" rx="6" fill="#ffffff" stroke="#e5e7eb" stroke-width="1.5"/>
  <rect x="40" y="40" width="720" height="36" rx="6" fill="#1e3a5f"/>
  <rect x="40" y="58" width="720" height="18" fill="#1e3a5f"/>
  <circle cx="64" cy="58" r="6" fill="#ef4444" opacity="0.7"/>
  <circle cx="84" cy="58" r="6" fill="#f59e0b" opacity="0.7"/>
  <circle cx="104" cy="58" r="6" fill="#22c55e" opacity="0.7"/>
  <text x="400" y="63" font-family="sans-serif" font-size="12" fill="#cbd5e1" text-anchor="middle">Theme picker — Diplodocus</text>
  <text x="72" y="112" font-family="sans-serif" font-size="13" fill="#374151" font-weight="600">Appearance</text>
  <text x="72" y="134" font-family="sans-serif" font-size="12" fill="#6b7280">Choose a colour theme for the sidebar and code blocks.</text>
  <rect x="72" y="152" width="148" height="100" rx="6" fill="#f9fafb" stroke="#1e3a5f" stroke-width="2"/>
  <rect x="72" y="152" width="148" height="28" rx="6" fill="#1e3a5f"/>
  <rect x="72" y="166" width="148" height="14" fill="#1e3a5f"/>
  <text x="146" y="170" font-family="sans-serif" font-size="10" fill="#ffffff" text-anchor="middle">Sidebar</text>
  <rect x="84" y="192" width="64" height="8" rx="2" fill="#e5e7eb"/>
  <rect x="84" y="208" width="100" height="8" rx="2" fill="#e5e7eb"/>
  <rect x="84" y="224" width="80" height="8" rx="2" fill="#e5e7eb"/>
  <text x="146" y="264" font-family="sans-serif" font-size="11" fill="#1e3a5f" text-anchor="middle" font-weight="600">✓ Light</text>
  <rect x="236" y="152" width="148" height="100" rx="6" fill="#0d1117" stroke="#e5e7eb" stroke-width="1"/>
  <rect x="236" y="152" width="148" height="28" rx="6" fill="#21262d"/>
  <rect x="236" y="166" width="148" height="14" fill="#21262d"/>
  <text x="310" y="170" font-family="sans-serif" font-size="10" fill="#8b949e" text-anchor="middle">Sidebar</text>
  <rect x="248" y="192" width="64" height="8" rx="2" fill="#21262d"/>
  <rect x="248" y="208" width="100" height="8" rx="2" fill="#21262d"/>
  <rect x="248" y="224" width="80" height="8" rx="2" fill="#21262d"/>
  <text x="310" y="264" font-family="sans-serif" font-size="11" fill="#6b7280" text-anchor="middle">Dark</text>
  <rect x="400" y="152" width="148" height="100" rx="6" fill="#fdf6e3" stroke="#e5e7eb" stroke-width="1"/>
  <rect x="400" y="152" width="148" height="28" rx="6" fill="#073642"/>
  <rect x="400" y="166" width="148" height="14" fill="#073642"/>
  <text x="474" y="170" font-family="sans-serif" font-size="10" fill="#839496" text-anchor="middle">Sidebar</text>
  <rect x="412" y="192" width="64" height="8" rx="2" fill="#eee8d5"/>
  <rect x="412" y="208" width="100" height="8" rx="2" fill="#eee8d5"/>
  <rect x="412" y="224" width="80" height="8" rx="2" fill="#eee8d5"/>
  <text x="474" y="264" font-family="sans-serif" font-size="11" fill="#6b7280" text-anchor="middle">Solarized</text>
  <text x="400" y="378" font-family="sans-serif" font-size="11" fill="#9ca3af" text-anchor="middle">Placeholder — replace with a real screenshot</text>
</svg>
